<svg xmlns="http://www.w3.org/2000/svg" viewBox="0 0 500 250"><defs><style>.cls-1{fill:none;opacity:0;}.cls-2{font-size:25px;fill:#666;font-family:MavenProRegular, Maven Pro;}</style></defs><title>Asset 48</title><g id="Layer_2" data-name="Layer 2"><g id="Layer_6" data-name="Layer 6"><rect class="cls-1" width="500" height="250"/><text class="cls-2" transform="translate(266.27 90.72)">WESTERN</text><path d="M123.31,202.3V178.9a41.48,41.48,0,0,0,26.88,9.73q11,0,16.17-4.58t5.17-17.94V78.62h23.53v87q0,13.87-4.21,23.49t-11.19,14.06a46.64,46.64,0,0,1-13.35,6.07A53.79,53.79,0,0,1,153,210.83,54.7,54.7,0,0,1,123.31,202.3Z"/><path d="M208.91,137.47Q205,133.22,205,125.28t3.91-12.19q3.91-4.25,11.2-4.25t11.2,4.25q3.91,4.25,3.91,12.19t-3.91,12.19q-3.91,4.25-11.2,4.25T208.91,137.47Zm5.61-20.22q-1.83,2.09-1.83,8t1.83,8q1.83,2.08,5.61,2.08t5.59-2.08q1.81-2.08,1.81-8t-1.81-8q-1.81-2.09-5.59-2.09T214.52,117.25Z"/><path d="M241.1,126.75V109.28h7.69v18.46q0,3.83,1.57,5.52t5.11,1.68q3.6,0,5.17-1.68t1.57-5.52V109.28h7.69v17.47q0,7-3.81,11t-10.61,4q-6.8,0-10.58-4T241.1,126.75Z"/><path d="M277.38,141.22V112.12q.78-.37,2.16-.88a53.55,53.55,0,0,1,5.53-1.46,39.9,39.9,0,0,1,8.25-1v6.59a31.21,31.21,0,0,0-8.25,1.06v24.78Z"/><path d="M299.19,141.22V112.28a32.49,32.49,0,0,1,14.66-3.5q6.69,0,10.45,3.48t3.77,9.77v19.19h-7.69V121.37a8.28,8.28,0,0,0-.23-2.14,5.44,5.44,0,0,0-.94-1.8,4.27,4.27,0,0,0-2.3-1.41,14.84,14.84,0,0,0-4.09-.47,33.56,33.56,0,0,0-5.94.56v25.09Z"/><path d="M334.19,130.78a10.84,10.84,0,0,1,.19-2,9.65,9.65,0,0,1,1-2.55,8.83,8.83,0,0,1,2.19-2.69,11.8,11.8,0,0,1,4.08-2,21.89,21.89,0,0,1,6.38-.83,39,39,0,0,1,5.61.44q0-6.09-6.76-6.09a24.77,24.77,0,0,0-9.38,1.63V110.4a28.31,28.31,0,0,1,9.82-1.62q6.83,0,10.46,3.48t3.62,10.08V131a10.16,10.16,0,0,1-3.29,7.58q-3.29,3.17-10.13,3.17-7.07,0-10.42-3.19A10.3,10.3,0,0,1,334.19,130.78Zm7.69-1q0,5.13,6,5.13H348q5.73,0,5.73-4.84v-4a38.55,38.55,0,0,0-4.58-.41Q341.91,125.65,341.88,129.81Z"/><path d="M369,141.22V97.12h7.69v44.09Z"/><path d="M171.2,46l-8,13.11,11.68,7.16a14.81,14.81,0,0,0,15.71-25.11A14.3,14.3,0,0,0,171.2,46Z"/></g></g></svg>